<?xml version="1.0" encoding="UTF-8"?>
<!DOCTYPE svg PUBLIC "-//W3C//DTD SVG 1.1//EN" "http://www.w3.org/Graphics/SVG/1.1/DTD/svg11.dtd">
<!-- Creator: CorelDRAW 2019 (64-Bit) -->
<svg xmlns="http://www.w3.org/2000/svg" xml:space="preserve" width="330.021mm" height="71.2218mm" version="1.1" style="shape-rendering:geometricPrecision; text-rendering:geometricPrecision; image-rendering:optimizeQuality; fill-rule:evenodd; clip-rule:evenodd"
viewBox="0 0 48359.6 10436.49"
 xmlns:xlink="http://www.w3.org/1999/xlink"
 xmlns:xodm="http://www.corel.com/coreldraw/odm/2003">
 <defs>
  <style type="text/css">
   <![CDATA[
    .fil1 {fill:#005193}
    .fil0 {fill:#E50013}
   ]]>
  </style>
 </defs>
 <g id="Слой_x0020_1">
  <metadata id="CorelCorpID_0Corel-Layer"/>
  <g id="_756058416">
   <path class="fil0" d="M13907.55 7967.21c9.82,994.94 -406.88,1381.72 -1439.14,1331.14 -745.28,-36.55 -799.6,-295.82 -1006.04,-379.25 -283.6,-114.61 -982.18,-40.56 -1331.83,-32.87 103.59,760.77 957.65,1353.05 1770.67,1491.92 1029.64,175.92 2059.99,-52.69 2617.23,-596.5 627.32,-612.16 613.54,-1675.86 613.47,-2754.38 -0.04,-1117.68 23.78,-2261.58 -5.17,-3376.01l-1207.02 2.15 -16.5 500.8c-1597.07,-1312.38 -3753.32,-394.75 -3797.13,1795.38 -32.31,1614.76 1126.91,2710.69 2610.7,2556.07 628.49,-65.5 798.54,-276.78 1190.76,-538.46zm-1670.72 -3218.23c-1684.85,581.47 -872.69,3166.77 863.33,2601.89 1558.53,-507.11 900.52,-3210.6 -863.33,-2601.89z"/>
   <path class="fil0" d="M-0 8517.32c624.52,39.04 1591.74,40.02 2194.93,-4.62 2128.42,-157.55 2474.36,-2499.68 1156.45,-3393.61l-331.71 -244.89c888.93,-804.24 740.3,-1895.34 91.97,-2429.61 -713.79,-588.22 -1984.36,-558.97 -3085.6,-506.28l-26.04 6579zm1255.31 -4005.83c577.51,23.74 1131.35,-42.48 1163.88,-650.44 36.56,-683.57 -526.27,-750.24 -1160.95,-720.56l-2.93 1371zm3.28 2815c734.36,19.72 1652.42,22.73 1627.81,-800.62 -24.4,-817.74 -814.76,-903.1 -1622.61,-880.1l-5.2 1680.73z"/>
   <path class="fil0" d="M16372.16 8513.38l1213.6 4.13c-0.03,-1187.15 -365.09,-3742.49 953.34,-3861.52 1524.8,-137.68 770.98,2790.13 973.23,3866.36l1151.9 2.67c104.66,-652.45 76.81,-3606.32 -145.76,-4108.21 -198.03,-446.51 -655.76,-816.27 -1279.5,-879.05 -858.74,-86.44 -1149.07,325.04 -1641.22,565.33l-13.67 -2322.23 -1204.44 -10.67 -7.47 6743.19z"/>
   <path class="fil1" d="M40961.05 7217.26c-147.08,-157 -281.14,-224.58 -510.4,-265.48 -318.16,412.8 -364.3,603.65 -811.01,849.8 -1335.32,735.75 -2850.84,-78.28 -2854.31,-1654.76l4356.14 -9.36c109.62,-3049.97 -4220.66,-3607.88 -4933.15,-691.31 -349.93,1432.39 485.54,2687.2 1507.63,3050.41 1490.07,529.52 2849.08,-289.01 3245.11,-1279.3zm-4106.54 -1641.54l3594.14 18.08c-391.28,-1926.89 -3128.38,-1983.85 -3594.14,-18.08z"/>
   <path class="fil1" d="M41589.32 6843.04c273.92,-128.13 407.4,-310.58 648.58,-497.13 722.3,-558.74 1196,-958.27 2112.14,-1369 1366.28,-612.56 2476.35,-455.86 3994.96,-632.21l3.68 -2344.03c-1233.05,207.58 -3151.3,1140.39 -4076.4,1694.31 -631.13,377.9 -1164.57,846.8 -1623.27,1288.06 -233.97,225.06 -467.8,523.38 -679.29,777.1 -361.22,433.29 -393.58,343.86 -380.39,1082.91z"/>
   <polygon class="fil0" points="22013,3644 21396.99,3656.97 21392.35,4693.53 22001.13,4708.05 22022.3,8522.14 23206.58,8527.02 23239.58,4710.72 23957.34,4701.86 23955.19,3651.26 23257,3648.34 23230.66,1854.18 22039.65,1855.5 "/>
   <path class="fil0" d="M41587.43 5904.23c332.77,-183.02 918.42,-1359.48 2885.33,-2515.38 1244.58,-731.42 2377.37,-1081.53 3871.19,-1578.45l15.65 -1810.41c-507.95,80.24 -1759.48,721.95 -2201.07,958.28 -1833.93,981.57 -2980.42,2105.06 -4103.54,3808.72 -243.61,369.53 -468.9,589.75 -467.56,1137.23z"/>
   <path class="fil1" d="M31418.57 4470.1l-25.98 -811.13 -617.59 -3.33 -2.2 4864.7 597.79 5.51c133.54,-746.07 -18.07,-1973.43 71.26,-2829.21 84.35,-807.8 678.56,-1465 1414.28,-1572.44 2223.41,-324.74 1379.83,2894.01 1555.22,4386.41l575.91 18.68c96.61,-482.77 31.83,-1760.85 31.56,-2325.23 -0.62,-1406.05 -323.1,-2948.77 -2158.33,-2646.8 -657.47,108.19 -1123.56,549.04 -1441.93,912.84z"/>
   <path class="fil0" d="M5950.26 4191.64l-9.03 -540.38 -1043.97 13.06 -0.82 4839.16 1196.02 22.16c230.65,-1723.68 -545.74,-4240.36 1055.17,-3836.48 94.75,-322.63 310.17,-751.08 327.87,-1076.64 -923.1,-212.31 -1114.93,102.41 -1525.24,579.12z"/>
   <polygon class="fil1" points="24804.94,8522.11 27960.9,8526.83 27997.34,7890.53 25483.17,7888.29 25463.6,1935.2 24806.96,1939.35 "/>
   <path class="fil0" d="M7984.26 8533.89l1222.85 12.94c66.85,-402.22 64.97,-4631.65 -13.85,-4898.93l-1193.34 -14.17c-90.46,293.8 -89.83,4497.07 -15.66,4900.16z"/>
   <polygon class="fil1" points="28877.4,3686.31 28882.85,8482.36 29444.74,8500.57 29443.76,3691.32 "/>
   <path class="fil0" d="M8357.16 1698c-1006.04,366.04 -480.4,1818.02 510.32,1484.63 929.88,-312.87 472.93,-1842.37 -510.32,-1484.63z"/>
   <path class="fil1" d="M28985.62 1690.9c-686.24,259.53 -244.24,1234.28 401.02,928.39 522.16,-247.51 268.25,-1181.48 -401.02,-928.39z"/>
  </g>
 </g>
</svg>
